<svg width="3688" height="600" viewBox="0 0 3688 600" fill="none" xmlns="http://www.w3.org/2000/svg">
<path d="M545.248 343.341C507.064 316.332 451.218 302.56 379.244 302.392C368.899 302.392 360.131 303.254 347.189 304.705C348.935 191.32 396.297 175.844 442.618 175.844H443.133C465.369 175.844 491.168 182.646 505.266 189.417C507.032 190.237 509.692 191.688 512.152 193.033C514.413 194.274 516.116 195.199 517.367 195.767L522.476 198.101L527.05 194.831C547.256 180.365 555.33 162.85 557.328 157.824L560.545 149.719L552.828 145.65C545.427 141.75 537.742 138.186 529.951 135.042C498.096 122.227 464.538 115.624 430.128 115.414C368.531 115.414 323.219 144.872 302.561 198.332C302.245 199.131 301.94 199.93 301.646 200.729C301.352 199.94 301.057 199.152 300.752 198.363C280.062 144.862 234.75 115.393 173.09 115.393C138.765 115.603 105.207 122.206 73.3304 135.032C65.5507 138.175 57.855 141.739 50.4642 145.629L42.4741 149.834L46.0802 158.108C52.5458 172.932 62.9749 185.653 76.2531 194.894L80.8264 198.08L85.8832 195.735C87.0292 195.199 88.7218 194.295 91.1399 192.96C93.4843 191.677 96.1441 190.226 98.047 189.343C112.04 182.625 137.808 175.823 159.991 175.823H160.506C206.838 175.823 254.221 191.299 255.956 304.705C242.667 303.243 234.277 302.371 223.88 302.371C151.948 302.539 96.1021 316.311 57.897 343.33C19.345 370.644 -0.135958 410.384 0.000714145 461.436C0.126873 502.374 12.6797 537.11 36.3134 561.89C60.0838 586.806 93.3897 599.979 132.657 599.979C192.119 599.821 258.721 590.643 301.667 486.436C344.54 590.528 410.952 599.779 470.278 600C509.629 600 543.009 586.827 566.811 561.921C590.476 537.152 603.05 502.416 603.176 461.457C603.291 410.352 583.8 370.612 545.248 343.351V343.341ZM541.463 464.358C541.463 510.585 508.494 544.143 463.056 544.143C422.012 544.143 391.219 527.175 371.528 493.711C354.507 464.779 345.928 424.482 346.054 373.997L346.149 361.266L351.468 360.94C360.909 360.341 368.363 359.857 372.737 359.857C443.028 359.994 490.253 373.156 517.115 400.102C533.347 416.397 541.537 438.012 541.453 464.358H541.463ZM257.217 373.913C257.354 424.335 248.786 464.632 231.733 493.69C212.137 527.143 181.343 544.112 140.216 544.112C94.7879 544.112 61.808 510.554 61.808 464.295C61.7238 437.991 69.9136 416.376 86.1566 400.06C112.913 373.177 160.138 360.004 230.514 359.815C234.961 359.815 242.52 360.299 252.076 360.908L257.123 361.224L257.217 373.913V373.913Z" fill="#252525"/>
<path d="M1118.14 179.262C1088.83 158.424 1047.36 147.87 994.897 147.87C884.845 147.87 825.268 188.809 817.834 269.543L817.398 274.234H889.807L890.156 270.309C894.003 226.569 927.945 204.393 991.03 204.393C1021.98 204.393 1044.86 208.852 1059.06 217.633C1073.07 226.307 1082.11 237.84 1085.18 250.963C1088.27 264.212 1089.84 285.835 1089.84 315.241V315.502H1053.89C889.022 315.502 805.419 363.982 805.419 459.593C805.419 494.339 818.706 523.056 844.923 544.941C871.004 566.825 904.888 577.922 945.642 577.922C1003.97 577.922 1052.34 560.496 1089.42 526.119L1089.84 525.731V568.356H1162.28V302.418C1162.28 241.494 1147.43 200.061 1118.14 179.252V179.262ZM899.848 405.58C924.087 381.301 971.084 368.992 1039.52 368.992L1089.92 368.915V460.417L1089.89 460.465C1076.34 479.597 1057.93 494.92 1036.59 504.835C1014.95 515.438 990.768 521.079 966.674 521.137C940.38 521.137 919.174 515.448 903.657 504.234C888.14 492.953 880.27 476.622 880.27 455.697C880.241 435.489 886.831 418.625 899.857 405.58H899.848Z" fill="#252525"/>
<path d="M1426.59 147.946C1386.26 147.946 1350.3 170.363 1319.71 214.578L1319.25 215.237V157.279H1246.41V568.384H1319.25V277.479L1319.27 277.45C1345.97 238.556 1378.31 218.833 1415.42 218.833H1415.51C1428.59 218.552 1441.75 219.676 1454.6 222.119L1459.7 223.088V151.009L1456.1 150.427C1446.38 148.847 1436.47 148.014 1426.59 147.946V147.946Z" fill="#252525"/>
<path d="M1723.65 147.832C1678.07 147.832 1638.57 167.516 1606.25 206.352L1605.86 206.817V0H1533.05V568.377H1605.86V536.209L1606.29 536.597C1636.5 564.161 1674.28 578.127 1718.58 578.127C1768.45 578.127 1810.37 558.374 1843.15 519.422C1875.93 480.49 1892.54 426.699 1892.54 359.543C1892.54 292.388 1877.68 243.056 1848.36 204.985C1819.17 167.061 1777.2 147.832 1723.64 147.832H1723.65ZM1817.34 359.543C1817.34 412.917 1807.93 453.633 1789.36 480.548C1770.73 507.608 1745.34 521.332 1713.89 521.332C1673.51 521.332 1637.18 504.419 1605.89 471.059L1605.81 470.962V275.291L1605.86 275.204C1639.14 228.256 1676.52 204.462 1716.98 204.462C1748.47 204.462 1773.35 217.759 1790.92 243.976C1808.45 270.135 1817.33 309.019 1817.33 359.534L1817.34 359.543Z" fill="#252525"/>
<path d="M2135.53 147.946C2077.42 147.946 2030.29 166.855 1995.47 204.14C1960.63 241.435 1942.96 294.905 1942.96 363.04C1942.96 431.175 1960.63 484.374 1995.49 521.746C2030.35 559.167 2077.48 578.134 2135.53 578.134C2193.58 578.134 2241.19 559.157 2276.02 521.746C2310.87 484.296 2328.55 430.903 2328.55 363.04C2328.55 295.177 2310.87 241.464 2276.02 204.14C2241.19 166.855 2193.92 147.946 2135.54 147.946H2135.53ZM2050.4 244.381C2072.12 217.922 2100.76 204.499 2135.53 204.499C2170.3 204.499 2199.05 217.912 2220.71 244.371C2242.39 270.85 2253.38 310.781 2253.38 363.069C2253.38 415.357 2242.39 454.901 2220.71 481.369C2199.05 507.829 2170.39 521.242 2135.53 521.242C2100.67 521.242 2072.06 507.829 2050.4 481.369C2028.72 454.92 2017.73 415.115 2017.73 363.069C2017.73 311.023 2028.72 270.792 2050.4 244.381V244.381Z" fill="#252525"/>
<path d="M2589.43 147.946C2544.2 147.946 2502.87 168.677 2466.61 209.548L2466.13 210.101V157.279H2393.3V568.384H2466.13V273.641L2466.17 273.593C2503.38 229.795 2541.08 207.59 2578.2 207.59C2605.54 207.59 2625.5 215.063 2637.55 229.785C2649.56 244.478 2655.65 268.941 2655.65 302.504V568.433H2728.46V299.412C2728.46 248.306 2717.18 211.147 2693.97 185.793C2670.98 160.681 2635.8 147.946 2589.44 147.946H2589.43Z" fill="#252525"/>
<path d="M3013.83 147.946C2968.62 147.946 2927.3 168.677 2891.01 209.548L2890.53 210.101V157.279H2817.67V568.384H2890.53V273.69L2890.57 273.641C2927.74 229.814 2965.43 207.59 3002.57 207.59C3029.95 207.59 3049.92 215.063 3061.94 229.785C3074.11 244.691 3080.02 268.475 3080.02 302.504V568.433H3152.88V299.412C3152.88 248.316 3141.59 211.147 3118.38 185.793C3095.39 160.681 3060.2 147.946 3013.84 147.946H3013.83Z" fill="#252525"/>
<path d="M3408.76 147.947C3351.56 147.947 3304.69 167.176 3269.48 205.11C3234.12 243.171 3216.19 296.302 3216.19 363.041C3216.19 429.78 3234.7 483.735 3271.2 521.36C3307.76 559.032 3356.78 578.135 3416.9 578.135C3463.75 578.135 3503.98 566.524 3536.47 543.622C3567.6 521.602 3586.68 490.413 3593.19 450.928L3594.01 445.927H3518.93L3518.56 449.823C3516.49 471.882 3505.65 489.299 3486.32 501.578C3465.52 514.701 3441.57 521.553 3416.9 521.195C3383.08 521.195 3354.23 509.555 3331.17 486.594C3308.08 463.595 3294.81 427.9 3291.74 380.487L3291.72 380.225H3601.75V363.022C3601.75 294.858 3584.07 241.397 3549.21 204.122C3514.36 166.837 3467.11 147.928 3408.76 147.928V147.947ZM3525.07 323.314L3293.19 323.343L3293.25 322.916C3298.91 283.218 3312.38 253.202 3333.31 233.682C3353.34 214.715 3379.44 204.325 3407.03 204.325C3407.59 204.325 3408.15 204.325 3408.71 204.335C3438.64 204.335 3464.29 214.289 3484.96 233.915C3505.6 253.541 3519.07 283.489 3525 322.907L3525.06 323.304L3525.07 323.314Z" fill="#252525"/>
<path d="M3649.04 487.692C3628.64 487.692 3610.45 502.278 3610.45 525.171C3610.45 548.063 3628.64 562.834 3649.04 562.834C3669.43 562.834 3687.6 547.986 3687.6 525.171C3687.6 502.356 3669.43 487.692 3649.04 487.692ZM3649.04 554.789C3633.36 554.789 3620.72 542.132 3620.72 525.18C3620.72 508.229 3633.27 495.852 3649.04 495.852C3652.83 495.872 3656.6 496.647 3660.08 498.14C3663.57 499.632 3666.74 501.803 3669.38 504.546C3672.02 507.279 3674.07 510.507 3675.44 514.054C3676.82 517.601 3677.47 521.381 3677.34 525.18C3677.34 542.345 3664.6 554.789 3649.04 554.789V554.789Z" fill="#252525"/>
<path d="M3666.5 516.614C3666.5 507.465 3660.7 504.141 3650.04 504.141H3634.04V546.233H3642.38V528.264H3647.72L3657.94 546.233H3666.68L3655.45 527.867C3661.57 527.276 3666.49 524.349 3666.49 516.614H3666.5ZM3642.39 521.732V510.567H3649.42C3653.24 510.567 3658.06 511.468 3658.06 515.897C3658.06 521.014 3654.64 521.732 3649.83 521.732H3642.39V521.732Z" fill="#252525"/>
</svg>
