<svg width="66" height="24" viewBox="0 0 66 24" fill="none" xmlns="http://www.w3.org/2000/svg">
<path d="M29.1246 5.23334V19.0522H34.8936C35.4725 19.0595 36.0471 18.9538 36.5854 18.7409C37.0847 18.5433 37.5419 18.2524 37.9324 17.8838C38.3085 17.51 38.6086 17.0668 38.816 16.5787C39.0273 16.0737 39.1323 15.5306 39.1244 14.9833C39.1401 14.2743 38.9459 13.5764 38.5661 12.9775C38.1998 12.4333 37.6954 11.9964 37.1047 11.7114C37.4364 11.4108 37.7046 11.0468 37.8933 10.6408C38.0916 10.2026 38.1903 9.7259 38.1822 9.24499C38.1904 8.71049 38.0877 8.18009 37.8807 7.68723C37.682 7.21519 37.3949 6.78547 37.0349 6.4212C36.6638 6.05162 36.2268 5.75478 35.7465 5.54601C35.2353 5.33212 34.6856 5.22569 34.1315 5.23334H29.1246ZM34.708 16.4685H31.9163V13.2943H34.708C35.1693 13.2732 35.6204 13.4341 35.9643 13.7424C36.1143 13.8931 36.2324 14.0725 36.3115 14.2699C36.3906 14.4673 36.4292 14.6786 36.4249 14.8912C36.431 15.1011 36.3932 15.31 36.3139 15.5044C36.2345 15.6989 36.1155 15.8746 35.9643 16.0204C35.6187 16.3304 35.1647 16.4914 34.701 16.4685H34.708ZM33.8551 10.906H31.9135V7.80448H33.8551C34.0724 7.7947 34.2894 7.8312 34.4915 7.91158C34.6936 7.99195 34.8764 8.11436 35.0276 8.27069C35.3105 8.56325 35.469 8.95393 35.4701 9.36084C35.4732 9.56315 35.4357 9.76402 35.3597 9.95153C35.2837 10.139 35.1708 10.3094 35.0276 10.4524C34.8731 10.6034 34.6895 10.7215 34.4879 10.7995C34.2864 10.8774 34.0711 10.9137 33.8551 10.906V10.906Z" fill="#F0F6FD"/>
<path d="M47.6768 19.2907C48.4369 19.2969 49.1925 19.1718 49.9101 18.9208C51.3173 18.4702 52.5356 17.566 53.3746 16.3497C53.8012 15.7426 54.1138 15.0629 54.2972 14.3439H51.2724C51.141 14.6895 50.9449 15.0069 50.6946 15.2791C50.4471 15.5533 50.1549 15.7836 49.8305 15.9603C49.5135 16.1565 49.1705 16.3073 48.8116 16.4083C48.4417 16.5094 48.0602 16.5619 47.6768 16.5647C47.0683 16.5737 46.4649 16.4529 45.9068 16.2101C45.3821 16.0054 44.9096 15.6864 44.5236 15.2763C44.1433 14.8709 43.843 14.3973 43.6386 13.8805C43.2291 12.7614 43.2291 11.5336 43.6386 10.4146C43.8421 9.89515 44.1424 9.4191 44.5236 9.01176C44.9139 8.6019 45.3849 8.2773 45.9068 8.05841C46.4693 7.83278 47.0708 7.72036 47.6768 7.72759C48.0601 7.73054 48.4415 7.78261 48.8116 7.88253C49.1666 7.9858 49.5085 8.12959 49.8305 8.31105C50.1508 8.50059 50.4419 8.73569 50.6946 9.00897C50.9444 9.28148 51.1405 9.59879 51.2724 9.94419H54.2903C54.1087 9.22015 53.7985 8.53461 53.3746 7.92022C52.9563 7.32833 52.4509 6.80314 51.8754 6.36246C51.275 5.93467 50.6171 5.59396 49.9213 5.35047C48.2512 4.82348 46.4499 4.89255 44.8251 5.54589C43.983 5.89951 43.2189 6.41557 42.5764 7.06457C41.9331 7.71934 41.4235 8.49307 41.0758 9.34258C40.3574 11.1426 40.3574 13.1497 41.0758 14.9497C41.7766 16.6494 43.1185 18.0049 44.8111 18.7226C45.7178 19.1047 46.6929 19.298 47.6768 19.2907V19.2907Z" fill="#F0F6FD"/>
<path d="M61.2569 19.2908C61.9214 19.3009 62.5826 19.1956 63.2111 18.9795C63.7598 18.7886 64.2685 18.4981 64.7116 18.1225C65.1168 17.7572 65.4439 17.3137 65.6734 16.8188C65.89 16.3006 66.0011 15.7445 66 15.1828C66 14.1122 65.6929 13.2161 65.0774 12.5154C64.4618 11.8147 63.5768 11.308 62.4615 10.9967L60.8661 10.5487C60.3981 10.4228 59.96 10.2045 59.5777 9.90656C59.4329 9.78304 59.3194 9.62691 59.2466 9.45098C59.1738 9.27505 59.1437 9.08436 59.159 8.89458C59.1601 8.70272 59.2101 8.51432 59.3044 8.34723C59.3987 8.18015 59.5341 8.03991 59.6978 7.93982C60.0669 7.71255 60.4942 7.5976 60.9275 7.60901C61.3554 7.6158 61.7737 7.73675 62.1391 7.95937C62.5244 8.21201 62.7924 8.621 62.9473 9.20585H65.7153C65.6879 8.67619 65.5644 8.15592 65.3509 7.67043C65.1079 7.17165 64.7828 6.71726 64.3892 6.32623C63.4527 5.44956 62.21 4.97455 60.9275 5.00298C60.2954 5.00167 59.6667 5.09578 59.0627 5.28214C58.5344 5.46072 58.0451 5.73832 57.6208 6.10011C57.2111 6.44958 56.8885 6.88975 56.6786 7.38568C56.4575 7.92684 56.3474 8.50687 56.3548 9.09139C56.3729 10.1425 56.7009 10.9995 57.3318 11.6807C57.9628 12.3618 58.8352 12.8602 59.9351 13.177L61.377 13.6055C62.0302 13.7814 62.4937 14.0145 62.7812 14.2867C62.9144 14.4155 63.0202 14.57 63.0922 14.7408C63.1642 14.9116 63.2008 15.0952 63.2 15.2805C63.2083 15.4846 63.1629 15.6873 63.0683 15.8683C62.9738 16.0493 62.8334 16.2023 62.6612 16.3121C62.2955 16.5661 61.8153 16.682 61.2569 16.682C60.6803 16.6972 60.114 16.5264 59.642 16.1948C59.4102 16.0295 59.2154 15.8178 59.0697 15.5732C58.9241 15.3286 58.8309 15.0564 58.7961 14.7739H56.0044C56.0243 15.3475 56.1616 15.9109 56.4078 16.4293C56.655 16.9736 57.0081 17.4633 57.4463 17.8698C57.9188 18.3168 58.474 18.6672 59.0808 18.9014C59.7742 19.1706 60.5132 19.3029 61.2569 19.2908V19.2908Z" fill="#F0F6FD"/>
<path d="M21.6431 17.4717C24.7279 11.8945 22.707 4.76935 17.1291 1.55715C11.5512 -1.65506 4.52868 0.262113 1.44381 5.83926C-1.64105 11.4164 0.37991 18.5416 5.95777 21.7538C11.5357 24.966 18.5582 23.0488 21.6431 17.4717Z" fill="url(#paint0_linear_576_20878)"/>
<path d="M21.9061 16.3271C24.8497 12.2035 23.349 5.97187 18.5542 2.40823C13.7594 -1.1554 7.48613 -0.701533 4.54253 3.42198C1.59893 7.54549 3.09963 13.7772 7.89443 17.3408C12.6893 20.9044 18.9625 20.4506 21.9061 16.3271Z" fill="url(#paint1_radial_576_20878)"/>
<path d="M21.9808 11.0164C23.441 8.12721 21.072 3.91563 16.6896 1.60958C12.3071 -0.696471 7.57068 -0.223741 6.11047 2.66545C4.65026 5.55465 7.01922 9.76623 11.4017 12.0723C15.7841 14.3783 20.5206 13.9056 21.9808 11.0164V11.0164Z" fill="url(#paint2_radial_576_20878)"/>
<defs>
<linearGradient id="paint0_linear_576_20878" x1="17.7804" y1="37.7981" x2="10.9598" y2="-3.85225" gradientUnits="userSpaceOnUse">
<stop stop-color="#006DEF"/>
<stop offset="0.11" stop-color="#0570EF"/>
<stop offset="0.23" stop-color="#1277F0"/>
<stop offset="0.37" stop-color="#2884F2"/>
<stop offset="0.5" stop-color="#4896F4"/>
<stop offset="0.64" stop-color="#70ADF6"/>
<stop offset="0.78" stop-color="#A1C9F9"/>
<stop offset="0.92" stop-color="#DBEAFD"/>
<stop offset="1" stop-color="white"/>
</linearGradient>
<radialGradient id="paint1_radial_576_20878" cx="0" cy="0" r="1" gradientUnits="userSpaceOnUse" gradientTransform="translate(27.1223 15.3355) rotate(105) scale(17.4648 28.7713)">
<stop offset="0.03" stop-color="#006DEF"/>
<stop offset="0.1" stop-color="#0671EF"/>
<stop offset="0.21" stop-color="#187BF0"/>
<stop offset="0.33" stop-color="#358BF2"/>
<stop offset="0.46" stop-color="#5EA3F4"/>
<stop offset="0.61" stop-color="#92C1F8"/>
<stop offset="0.76" stop-color="#D1E4FB"/>
<stop offset="0.83" stop-color="#F0F6FD"/>
</radialGradient>
<radialGradient id="paint2_radial_576_20878" cx="0" cy="0" r="1" gradientUnits="userSpaceOnUse" gradientTransform="translate(28.3507 4.43965) rotate(48.8654) scale(24.6867 20.7521)">
<stop offset="0.06" stop-color="#006DEF"/>
<stop offset="0.09" stop-color="#0F75F0"/>
<stop offset="0.25" stop-color="#529CF4"/>
<stop offset="0.4" stop-color="#8BBCF7"/>
<stop offset="0.54" stop-color="#B6D5FA"/>
<stop offset="0.67" stop-color="#D6E7FB"/>
<stop offset="0.77" stop-color="#E9F2FD"/>
<stop offset="0.84" stop-color="#F0F6FD"/>
</radialGradient>
</defs>
</svg>
